<svg width="284" height="352" viewBox="0 0 284 352" fill="none" xmlns="http://www.w3.org/2000/svg">
<path fill-rule="evenodd" clip-rule="evenodd" d="M31.0218 131.998C22.9638 132.075 20.8648 129.838 20.8078 122.506V112.014C20.8678 104.32 23.0568 102.097 31.0218 102.022H51.4488V77.5351C37.9978 75.9681 31.5879 78.3681 26.4259 71.5471C21.1649 64.3211 19.5839 59.7741 16.9089 51.0631C12.8609 37.6871 14.4578 31.5771 29.4898 31.0791C83.4958 23.9321 111.181 18.7731 172.992 15.0921C217.299 13.1791 231.436 40.9481 238.359 102.022H258.786C266.752 102.097 268.941 104.32 269 112.014V122.506C268.943 129.838 266.844 132.075 258.786 131.998H31.0218Z" fill="white" stroke="white" stroke-width="30" stroke-miterlimit="1.5" stroke-linecap="round" stroke-linejoin="round"/>
<path d="M31.0224 131.998C22.9644 132.075 20.8654 129.838 20.8084 122.506V112.014C20.8674 104.32 23.0564 102.097 31.0224 102.022H51.4494V77.535C37.9974 75.968 31.5874 78.368 26.4264 71.547C21.1644 64.321 19.5834 59.7739 16.9084 51.063C12.8614 37.687 14.4574 31.5769 29.4904 31.0789C83.4964 23.9319 111.181 18.772 172.992 15.092C217.299 13.178 231.436 40.9479 238.359 102.022H258.786C266.752 102.097 268.941 104.32 269 112.014V122.506C268.943 129.838 266.844 132.075 258.786 131.998H31.0224Z" fill="#0071EB" stroke="#0071EB"/>
<path fill-rule="evenodd" clip-rule="evenodd" d="M58.7502 272.037V192.56C38.4732 192.513 31.1842 189.105 31.2502 172.06C31.1442 156.285 37.9132 152.707 58.7502 153.06H220.25C234.354 152.824 238.341 156.916 238.25 172.06V228.037H246.361C251.399 228.065 252.82 230.767 252.748 241.037V308.537C252.797 318.305 250.97 320.616 245.25 320.537H128.25C120.489 320.867 118.267 317.629 118.25 305.537V290.537H72.7502C61.6392 290.488 58.3742 286.694 58.7502 272.037Z" fill="white" stroke="white" stroke-width="40" stroke-miterlimit="1.5" stroke-linecap="round" stroke-linejoin="round"/>
<path d="M246.361 228.037H58.7514V272.037C58.3744 286.694 61.6394 290.488 72.7514 290.537H118.25V305.537C118.267 317.629 120.489 320.867 128.25 320.537H245.25C250.97 320.616 252.797 318.305 252.748 308.537V241.037C252.82 230.767 251.399 228.065 246.361 228.037Z" fill="#0071EB" stroke="#0071EB" stroke-miterlimit="10" stroke-linejoin="round"/>
<path d="M58.7515 228.037V192.56C38.4735 192.513 31.1845 189.105 31.2505 172.06C31.1445 156.285 37.9135 152.707 58.7515 153.06H220.25C234.354 152.824 238.341 156.916 238.25 172.06V228.037M58.7515 228.037H238.25M58.7515 228.037V272.037C58.3745 286.694 61.6395 290.488 72.7515 290.537H118.25V305.537C118.267 317.629 120.489 320.867 128.25 320.537H245.25C250.97 320.616 252.797 318.305 252.748 308.537V241.037C252.82 230.767 251.399 228.065 246.361 228.037H238.25" stroke="#0071EB" stroke-width="15"/>
<path d="M158.25 178.037V202.537M196.25 178.037V202.537" stroke="#0071EB" stroke-width="20"/>
</svg>
